<svg width="62" height="80" viewBox="0 0 62 80" fill="none" xmlns="http://www.w3.org/2000/svg">
<g filter="url(#filter0_d)">
<path d="M30.8475 12C19.3521 12 10 21.6546 10 33.5217C10 37.6037 11.1169 41.5793 13.23 45.0189L29.247 71.0913C29.5945 71.6572 30.1984 72 30.8475 72C31.4965 72 32.1003 71.6572 32.4479 71.0914L48.4649 45.019C50.578 41.5793 51.6949 37.6036 51.6949 33.5218C51.6949 21.6546 42.3428 12 30.8475 12Z" fill="#3CD52E"/>
</g>
<path fill-rule="evenodd" clip-rule="evenodd" d="M28.0166 30.2779C27.3923 30.3121 26.8586 29.836 26.824 29.214C26.7897 28.592 27.2678 28.0599 27.8921 28.0257C27.9336 28.0233 27.9751 28.0233 28.0166 28.0257H35.3223C35.9466 27.9915 36.4803 28.468 36.5146 29.0896C36.5492 29.7116 36.0711 30.2437 35.4468 30.2779C35.4053 30.2803 35.3638 30.2803 35.3223 30.2779H28.0166Z" fill="white"/>
<path fill-rule="evenodd" clip-rule="evenodd" d="M28.7955 39.939C29.5799 39.9373 30.2172 40.5688 30.2189 41.3504C30.2206 42.132 29.5864 42.767 28.8023 42.7687C28.0179 42.7708 27.381 42.1385 27.3789 41.3573V41.3504C27.381 40.5716 28.0138 39.9407 28.7955 39.939Z" fill="white"/>
<path fill-rule="evenodd" clip-rule="evenodd" d="M34.2628 39.939C35.0472 39.939 35.6827 40.5726 35.6827 41.3538C35.6827 42.1351 35.0472 42.7687 34.2628 42.7687C33.4783 42.7687 32.8428 42.1351 32.8428 41.3538V41.3504C32.8428 40.5709 33.477 39.939 34.2593 39.939H34.2628Z" fill="white"/>
<path fill-rule="evenodd" clip-rule="evenodd" d="M31.5185 34.7205C30.8963 34.686 30.4196 34.156 30.4539 33.536C30.4858 32.9636 30.9444 32.5066 31.5185 32.4752H42.117C43.964 32.4861 45.4522 33.9868 45.4413 35.8268C45.4361 36.6918 45.0942 37.5202 44.4871 38.1381L35.3052 47.3041C33.2431 49.355 29.9037 49.355 27.8417 47.3041L17.7989 37.2974C15.7402 35.2428 15.7402 31.9154 17.7989 29.8608L27.8417 19.8541C29.9037 17.8032 33.2431 17.8032 35.3052 19.8541L42.7927 27.3112C43.2358 27.7518 43.2369 28.4674 42.7944 28.909C42.3519 29.3505 41.6341 29.3515 41.1909 28.9107L33.7068 21.4467C32.5276 20.2751 30.6192 20.2751 29.44 21.4467L19.3972 31.4533C18.2269 32.6307 18.2269 34.5275 19.3972 35.7048L29.44 45.7115C30.6192 46.883 32.5276 46.883 33.7068 45.7115L42.8887 36.5626C43.0434 36.4129 43.1487 36.2198 43.1906 36.009C43.2317 35.7943 43.2091 35.5719 43.1254 35.3699C43.0441 35.1686 42.9045 34.996 42.7241 34.8743C42.5409 34.766 42.33 34.7127 42.117 34.7205H37.1505L36.1215 38.3363C35.9812 38.8189 35.5384 39.1518 35.0342 39.1531H28.0166C27.4932 39.1535 27.0377 38.7957 26.9156 38.2885L25.8866 34.7205H22.5973C21.972 34.7209 21.4651 34.2161 21.4648 33.5934C21.4641 32.9704 21.9707 32.4653 22.5959 32.4649H22.5973H26.7372C27.2425 32.467 27.6856 32.8012 27.8245 33.2852L28.8535 36.8941H34.1699L34.7975 34.7137L31.5185 34.7205Z" fill="white"/>
<defs>
<filter id="filter0_d" x="0" y="0" width="61.6949" height="80" filterUnits="userSpaceOnUse" color-interpolation-filters="sRGB">
<feFlood flood-opacity="0" result="BackgroundImageFix"/>
<feColorMatrix in="SourceAlpha" type="matrix" values="0 0 0 0 0 0 0 0 0 0 0 0 0 0 0 0 0 0 127 0"/>
<feOffset dy="-2"/>
<feGaussianBlur stdDeviation="5"/>
<feColorMatrix type="matrix" values="0 0 0 0 0.0470771 0 0 0 0 0.0480349 0 0 0 0 0.0469894 0 0 0 0.2 0"/>
<feBlend mode="normal" in2="BackgroundImageFix" result="effect1_dropShadow"/>
<feBlend mode="normal" in="SourceGraphic" in2="effect1_dropShadow" result="shape"/>
</filter>
</defs>
</svg>
